<?xml version="1.0" standalone="no"?>
<!DOCTYPE svg PUBLIC "-//W3C//DTD SVG 20010904//EN"
 "http://www.w3.org/TR/2001/REC-SVG-20010904/DTD/svg10.dtd">
<svg version="1.0" xmlns="http://www.w3.org/2000/svg"
 width="400.000000pt" height="300.000000pt" viewBox="0 0 400.000000 300.000000"
 preserveAspectRatio="xMidYMid meet">
<metadata>
Created by potrace 1.16, written by Peter Selinger 2001-2019
</metadata>
<g transform="translate(0.000000,300.000000) scale(0.100000,-0.100000)"
fill="#000000" stroke="none">
<path d="M494 1686 c-122 -57 -127 -186 -9 -231 l40 -15 -60 5 c-33 3 -70 6
-83 8 -18 1 -29 -7 -44 -33 -24 -41 -20 -73 12 -108 18 -19 31 -22 106 -22 97
0 137 14 189 66 28 27 31 29 28 10 -3 -12 5 -33 17 -49 18 -23 29 -27 71 -27
29 0 60 7 75 16 23 15 26 15 43 0 20 -18 46 -20 87 -6 26 9 33 22 65 123 20
61 49 138 64 170 24 51 26 60 15 87 -13 32 -25 35 -92 24 -34 -6 -41 -13 -83
-88 -25 -44 -55 -92 -66 -106 l-21 -25 20 35 c11 19 32 57 47 83 l28 49 -25
25 c-22 22 -31 24 -70 18 -25 -4 -50 -10 -56 -14 -6 -3 -34 -54 -61 -111 -28
-58 -51 -99 -51 -91 0 8 -10 25 -22 38 l-21 23 29 0 c26 0 33 7 52 45 26 54
27 73 6 103 -14 20 -24 22 -97 22 -65 0 -92 -5 -133 -24z m204 5 c11 -7 8 -19
-13 -60 -23 -46 -29 -52 -53 -49 -21 2 -26 8 -25 26 2 18 -2 22 -25 22 -29 0
-52 -16 -52 -36 0 -7 20 -24 45 -39 25 -14 52 -37 61 -50 31 -48 -3 -118 -74
-155 -49 -24 -232 -4 -232 26 0 7 10 25 23 39 22 27 23 27 84 14 48 -10 68
-10 87 -1 44 20 32 45 -36 77 -56 27 -63 34 -66 62 -4 41 44 96 101 117 46 16
154 21 175 7z m382 -11 c0 -6 -17 -45 -39 -88 -21 -42 -51 -114 -66 -160 -22
-66 -33 -85 -52 -93 -44 -16 -53 -12 -53 27 l0 37 -45 -42 c-48 -45 -91 -54
-119 -25 -30 29 -14 113 45 242 28 61 44 85 64 92 32 12 78 13 73 2 -1 -5 -25
-51 -51 -103 -34 -65 -48 -104 -45 -124 l3 -30 45 42 c25 22 61 67 80 100 82
139 77 133 120 133 22 0 40 -5 40 -10z"/>
<path d="M1265 1696 c-104 -13 -81 13 -186 -213 l-61 -132 23 -30 c20 -25 31
-30 71 -30 46 -1 48 1 69 40 l21 41 23 -35 c36 -52 81 -57 140 -17 24 16 47
35 50 40 3 5 -6 27 -20 47 -14 21 -25 41 -25 44 0 4 13 12 29 19 39 16 70 50
85 94 l12 35 23 -72 24 -72 -57 -50 c-31 -28 -56 -53 -56 -56 0 -18 80 -59
113 -59 33 0 47 9 115 74 74 71 79 74 91 55 10 -17 9 -25 -3 -44 -22 -33 -20
-47 10 -68 38 -28 77 -15 118 42 25 36 42 50 65 53 28 4 31 2 31 -23 0 -41 9
-58 40 -74 25 -13 34 -13 71 0 63 23 69 31 69 94 0 31 9 94 20 141 22 99 17
116 -50 150 -65 33 -75 29 -179 -79 -61 -63 -107 -102 -125 -107 l-29 -7 42
62 c52 76 50 114 -5 137 -55 23 -69 18 -115 -43 l-44 -56 -8 42 c-6 31 -15 45
-37 56 -39 20 -44 19 -92 -11 l-41 -26 -20 26 c-21 30 -46 31 -202 12z m176
-17 c25 -25 21 -78 -9 -119 -17 -23 -97 -83 -123 -92 -8 -3 -2 -19 16 -46 31
-47 27 -60 -27 -88 -35 -18 -45 -12 -85 52 -15 24 -30 44 -33 44 -3 0 -14 -19
-25 -42 -19 -41 -22 -43 -67 -46 -27 -2 -48 1 -48 6 0 5 24 60 53 123 30 63
59 130 67 149 7 19 16 39 20 43 4 5 56 14 116 21 60 8 112 14 117 15 4 0 17
-9 28 -20z m375 5 c13 -3 24 -11 24 -17 0 -22 -141 -195 -229 -280 l-90 -89
-31 22 c-16 12 -30 25 -30 30 0 5 23 30 51 57 l51 49 -31 88 c-17 48 -31 92
-31 97 0 11 60 49 77 49 6 0 19 -26 28 -57 29 -105 24 -104 95 -14 41 52 69
80 78 76 8 -3 25 -8 38 -11z m284 -4 c22 -11 40 -23 40 -27 0 -3 -9 -38 -21
-76 -12 -39 -24 -100 -28 -136 -6 -63 -7 -66 -46 -88 -21 -12 -43 -19 -47 -17
-4 3 -8 30 -8 61 l0 56 -37 -7 c-21 -3 -46 -6 -55 -6 -10 0 -29 -20 -44 -46
-25 -42 -55 -64 -90 -64 -21 0 -17 19 11 56 14 18 25 35 25 38 0 3 -11 6 -25
6 -31 0 -31 7 -3 37 13 14 33 23 50 23 23 0 48 20 129 105 56 58 103 105 106
105 2 0 22 -9 43 -20z"/>
<path d="M2343 1699 c-34 -10 -80 -77 -143 -211 -81 -171 4 -236 220 -169 l58
18 25 -24 c20 -21 30 -23 60 -18 29 6 42 16 64 51 19 30 38 47 58 53 29 7 30
6 38 -30 5 -25 18 -46 37 -59 34 -25 31 -25 89 1 l48 20 6 67 c4 36 14 104 24
150 12 59 14 88 7 100 -13 22 -91 62 -120 62 -15 0 -53 -33 -118 -101 -77 -81
-102 -101 -131 -106 -20 -3 -42 -15 -49 -25 -12 -17 -18 -18 -36 -8 -19 10
-51 8 -103 -7 -26 -7 -17 22 35 112 33 59 38 75 31 100 -7 24 -15 30 -38 32
-17 1 -44 -3 -62 -8z m70 -5 c3 -3 -19 -52 -49 -108 -52 -100 -66 -146 -43
-146 7 0 40 5 75 12 35 6 66 9 69 6 3 -3 -2 -21 -10 -41 -13 -32 -22 -39 -73
-54 -31 -9 -86 -17 -122 -18 l-65 0 -3 39 c-4 47 6 74 75 198 48 87 56 97 91
106 49 13 48 13 55 6z m448 -15 c31 -15 39 -24 34 -37 -18 -47 -45 -160 -51
-213 -6 -57 -9 -61 -45 -80 -38 -19 -38 -19 -49 0 -5 11 -10 38 -10 61 l0 42
-47 -7 c-60 -9 -58 -7 -88 -59 -19 -32 -34 -45 -56 -50 -48 -9 -52 1 -19 50
l31 44 -26 0 c-14 0 -25 3 -25 7 0 18 46 53 70 53 20 0 48 23 124 105 54 58
102 105 107 105 5 0 28 -9 50 -21z"/>
<path d="M2997 1680 c-26 -16 -47 -31 -47 -32 0 -2 15 -45 34 -95 l33 -93 -53
-50 c-30 -28 -54 -55 -54 -59 0 -21 70 -61 107 -61 34 0 47 8 120 78 45 42 79
74 76 70 -2 -5 3 -15 11 -24 15 -14 14 -18 -5 -46 l-22 -30 25 -25 c21 -20 31
-23 61 -18 29 6 42 17 67 55 23 35 38 49 59 52 27 4 30 2 35 -37 5 -33 13 -44
40 -59 32 -17 35 -17 83 4 l50 21 6 71 c3 40 14 104 23 144 13 56 15 79 7 97
-12 26 -86 67 -120 67 -13 0 -56 -37 -117 -100 -71 -75 -104 -102 -128 -107
l-33 -6 21 24 c12 13 33 42 48 65 23 35 25 44 15 71 -7 21 -21 35 -41 42 -55
19 -71 13 -114 -45 l-41 -55 -12 45 c-9 36 -16 46 -42 55 -42 15 -38 15 -92
-19z m88 -64 c11 -42 21 -76 25 -76 3 1 28 30 55 66 75 98 76 98 120 80 l37
-16 -43 -61 c-58 -82 -177 -216 -239 -268 l-52 -44 -30 30 -29 30 55 47 55 47
-34 96 c-19 53 -32 99 -30 101 13 13 80 50 86 47 3 -2 14 -38 24 -79z m496 63
c31 -15 39 -24 34 -37 -17 -40 -46 -161 -52 -215 -6 -55 -8 -59 -45 -78 -22
-11 -43 -18 -46 -15 -3 3 -7 31 -10 62 l-5 56 -46 -7 c-57 -9 -54 -6 -87 -59
-20 -31 -37 -46 -57 -50 -46 -9 -49 2 -17 50 l31 44 -26 0 c-14 0 -25 3 -25 7
0 18 46 53 69 53 20 0 49 24 124 105 54 58 103 105 108 105 5 0 28 -9 50 -21z"/>
</g>
</svg>
