<?xml version="1.0" standalone="no"?>
<!DOCTYPE svg PUBLIC "-//W3C//DTD SVG 20010904//EN"
 "http://www.w3.org/TR/2001/REC-SVG-20010904/DTD/svg10.dtd">
<svg version="1.0" xmlns="http://www.w3.org/2000/svg"
 width="300.000000pt" height="225.000000pt" viewBox="0 0 300.000000 225.000000"
 preserveAspectRatio="xMidYMid meet">
<metadata>
Created by potrace 1.10, written by Peter Selinger 2001-2011
</metadata>
<g transform="translate(0.000000,225.000000) scale(0.100000,-0.100000)"
fill="#000000" stroke="none">
<path d="M1484 1992 c-39 -30 -105 -53 -196 -68 -158 -27 -240 -69 -285 -145
-10 -16 -24 -29 -33 -29 -31 0 -116 -48 -145 -81 -17 -19 -52 -73 -79 -119
-73 -128 -96 -158 -132 -180 l-33 -21 16 -37 c12 -28 14 -55 9 -112 -23 -275
-19 -315 37 -386 16 -20 22 -43 22 -83 2 -78 36 -139 145 -256 63 -68 95 -112
107 -145 l17 -48 61 -4 c44 -4 86 -17 156 -51 52 -25 115 -51 139 -57 58 -16
137 -14 178 3 29 12 40 11 86 -4 69 -24 137 -14 249 37 125 56 178 73 223 74
39 0 41 1 62 53 15 34 51 82 107 142 105 111 145 184 145 265 0 42 5 61 17 71
25 21 52 89 59 150 3 31 -1 101 -9 164 -16 110 -11 181 13 210 6 7 0 17 -18
27 -42 25 -66 55 -127 163 -86 149 -122 187 -206 215 -34 12 -57 28 -81 60
-42 56 -118 94 -229 115 -118 22 -181 42 -221 69 -31 21 -37 22 -54 8z m54
-51 c32 -22 73 -34 209 -60 122 -23 185 -56 222 -117 20 -33 34 -44 61 -49 87
-16 146 -76 222 -227 18 -35 53 -83 78 -108 l45 -46 -9 -48 c-7 -32 -6 -80 2
-144 23 -188 13 -260 -44 -315 -20 -19 -24 -32 -24 -87 0 -83 -28 -133 -139
-250 -44 -47 -88 -104 -98 -127 -17 -39 -20 -42 -70 -48 -29 -3 -88 -24 -135
-47 -165 -80 -237 -94 -313 -60 -38 18 -41 18 -87 0 -84 -32 -133 -23 -305 56
-55 25 -121 49 -147 52 -43 6 -48 10 -66 51 -11 25 -50 77 -88 116 -127 134
-158 189 -150 270 4 36 0 47 -28 81 -53 62 -61 121 -40 274 14 100 15 137 7
174 l-11 47 43 45 c24 24 61 77 82 118 75 145 136 208 217 222 27 5 42 15 52
34 39 74 112 112 275 141 71 13 129 30 155 45 51 30 52 30 84 7z"/>
<path d="M1459 1893 c-25 -12 -89 -29 -143 -38 -54 -8 -124 -25 -155 -38 -47
-19 -62 -31 -94 -80 -33 -48 -43 -57 -69 -57 -76 0 -123 -45 -208 -200 -28
-52 -67 -111 -84 -130 -31 -33 -32 -38 -25 -84 5 -30 2 -80 -6 -135 -27 -162
-12 -250 50 -299 22 -17 23 -25 18 -75 -8 -76 16 -122 122 -233 47 -49 94
-108 105 -130 19 -37 25 -42 65 -46 24 -3 93 -29 154 -58 135 -64 204 -74 268
-41 l42 21 43 -20 c78 -36 155 -21 315 59 34 17 83 34 108 38 41 5 48 10 67
46 11 23 55 77 97 122 125 131 150 177 132 254 -8 35 -6 42 16 63 60 56 66 79
58 206 -4 64 -8 156 -8 203 -2 84 -3 87 -38 126 -20 22 -56 77 -80 123 -24 46
-64 105 -89 131 -37 39 -54 49 -101 58 -49 10 -59 16 -69 42 -18 43 -84 95
-138 109 -26 6 -85 18 -131 25 -46 8 -105 24 -131 37 l-47 23 -44 -22z m126
-32 c33 -11 100 -27 149 -36 49 -9 101 -22 117 -30 35 -19 75 -61 89 -96 9
-21 22 -28 67 -38 75 -17 117 -58 182 -176 30 -54 68 -113 84 -132 29 -33 31
-41 33 -122 1 -47 6 -121 12 -163 14 -107 2 -162 -46 -213 -36 -37 -38 -43
-31 -80 16 -79 -10 -130 -123 -245 -36 -36 -77 -86 -91 -111 -24 -40 -33 -47
-67 -52 -22 -3 -90 -29 -152 -58 -134 -63 -191 -72 -259 -40 l-45 21 -49 -21
c-70 -31 -126 -22 -257 40 -59 28 -127 54 -151 57 -37 5 -46 11 -63 43 -10 20
-56 76 -102 125 -106 114 -126 152 -119 225 6 52 4 56 -33 99 -56 63 -58 83
-32 312 4 36 5 82 2 104 -4 33 -1 43 30 75 19 20 56 78 83 128 65 124 99 161
166 179 30 7 57 12 60 9 4 -2 19 18 33 44 45 80 81 98 243 126 55 9 118 25
140 35 43 20 42 20 130 -9z"/>
<path d="M1426 1741 c-9 -14 5 -121 15 -115 5 3 6 24 3 47 -8 48 5 44 15 -4 8
-42 31 -51 31 -12 0 15 5 35 10 43 7 11 10 4 10 -27 0 -24 5 -43 10 -43 11 0
13 28 4 83 -7 40 -34 52 -34 15 0 -13 -4 -29 -9 -37 -7 -11 -12 -7 -18 19 -9
34 -26 49 -37 31z"/>
<path d="M1567 1743 c-3 -5 -8 -27 -12 -51 -8 -49 5 -72 40 -72 25 0 45 40 45
91 0 48 -17 32 -24 -22 -6 -40 -10 -50 -24 -47 -14 3 -16 13 -14 56 3 48 0 63
-11 45z"/>
<path d="M1685 1708 c-15 -42 -35 -101 -35 -104 0 -2 4 -4 10 -4 5 0 13 11 16
26 5 19 12 24 28 22 20 -3 21 -7 9 -50 -3 -10 -1 -18 3 -18 5 0 19 27 31 60
17 49 19 60 7 60 -8 0 -14 -9 -14 -20 0 -21 -8 -24 -34 -14 -11 4 -13 11 -6
30 6 15 6 24 -1 24 -5 0 -12 -6 -14 -12z"/>
<path d="M1238 1699 c-20 -11 -24 -44 -7 -55 7 -4 23 -7 37 -8 14 -1 27 -7 30
-13 5 -18 -28 -29 -38 -13 -5 7 -10 8 -14 2 -9 -15 21 -34 43 -27 46 14 30 75
-20 75 -20 0 -29 4 -26 13 2 6 14 11 25 9 25 -4 30 13 6 22 -19 7 -15 8 -36
-5z"/>
<path d="M1136 1652 c-7 -12 17 -132 26 -132 5 0 8 8 8 19 0 26 27 48 42 33
14 -14 28 -16 28 -3 0 14 -98 93 -104 83z"/>
<path d="M1781 1616 l-43 -44 33 1 c28 2 35 -2 37 -20 5 -38 18 -26 30 28 22
95 10 103 -57 35z"/>
<path d="M1042 1591 c-18 -14 -30 -30 -26 -34 4 -4 13 -2 21 5 7 6 15 9 17 7
1 -2 15 -21 30 -41 16 -21 32 -35 37 -32 5 3 -5 23 -22 45 -24 31 -29 42 -20
53 22 26 -4 24 -37 -3z"/>
<path d="M1876 1564 c-45 -53 -42 -71 4 -22 l32 33 -21 -38 c-12 -21 -21 -40
-21 -43 0 -12 29 -2 45 16 10 11 23 20 28 20 6 0 -1 -13 -16 -28 -15 -15 -27
-31 -27 -35 0 -17 19 -4 54 39 28 33 35 49 27 57 -8 8 -17 5 -33 -10 -44 -39
-53 -38 -30 1 20 34 22 56 4 56 -4 0 -25 -21 -46 -46z"/>
<path d="M980 1537 c0 -16 76 -87 93 -87 15 0 4 14 -45 59 -31 28 -48 38 -48
28z"/>
<path d="M1587 1514 c-15 -8 -27 -19 -27 -24 0 -18 52 -50 74 -44 14 3 28 -2
40 -15 11 -12 27 -21 37 -21 10 0 23 -8 28 -18 6 -11 31 -27 56 -36 32 -13 45
-23 45 -37 0 -10 10 -29 22 -41 12 -12 24 -31 26 -43 1 -11 7 -24 12 -29 6 -6
10 -24 10 -40 0 -17 4 -37 9 -45 6 -9 5 -23 -1 -36 -7 -16 -7 -29 0 -41 7 -13
6 -24 -5 -41 -8 -12 -12 -30 -9 -39 3 -8 -1 -25 -9 -37 -8 -12 -15 -31 -15
-43 0 -12 -11 -29 -25 -38 -13 -9 -28 -30 -33 -48 -6 -25 -15 -34 -41 -41 -25
-6 -37 -17 -49 -47 -35 -82 -194 -122 -343 -86 -81 19 -118 44 -149 100 -14
27 -35 53 -46 58 -10 5 -28 28 -38 51 -19 41 -20 42 -23 14 -5 -34 -25 -44
-59 -29 -16 8 -24 8 -24 1 0 -16 56 -69 73 -69 9 0 22 -3 31 -6 12 -4 16 0 16
15 0 12 5 21 11 21 6 0 9 -12 7 -27 -3 -26 -6 -28 -43 -26 l-40 2 33 -29 c22
-21 43 -30 66 -30 19 0 60 -14 91 -30 32 -17 75 -33 97 -37 l40 -6 -51 -24
c-28 -14 -51 -29 -51 -34 0 -15 17 -10 55 15 50 35 112 42 174 21 27 -9 55
-23 61 -31 7 -7 19 -14 27 -14 25 0 -6 30 -52 51 -34 15 -37 18 -15 18 14 1
52 14 85 29 44 21 71 27 101 24 34 -3 46 1 63 19 11 13 21 34 21 49 0 21 7 28
33 35 27 8 34 17 42 51 6 23 18 51 28 62 15 16 16 25 8 41 -9 17 -8 22 10 31
17 10 20 19 17 48 -3 21 0 45 6 54 7 12 6 24 -3 41 -10 19 -10 29 -1 46 9 18
8 27 -4 46 -9 14 -16 36 -16 50 0 14 -9 30 -20 37 -11 7 -20 23 -20 35 0 23
-32 63 -50 63 -5 0 -10 8 -10 18 0 29 -14 41 -66 60 -27 9 -60 28 -72 40 -17
17 -31 22 -47 18 -13 -3 -27 -2 -30 4 -14 23 -40 28 -68 14z m51 -29 c0 -29
-28 -34 -49 -9 -10 13 -10 17 2 25 27 17 47 10 47 -16z m75 -11 c21 -8 9 -44
-14 -44 -23 0 -45 36 -26 43 17 8 23 8 40 1z m81 -53 c3 -4 19 -11 36 -14 27
-6 43 -27 20 -27 -5 0 -10 -7 -10 -15 0 -23 -29 -6 -36 21 -3 13 -10 24 -16
24 -5 0 -7 -4 -3 -9 3 -5 1 -12 -4 -15 -10 -7 -41 20 -41 35 0 11 47 12 54 0z
m107 -97 c10 -13 10 -17 -2 -25 -25 -15 -39 -10 -39 16 0 28 21 33 41 9z m44
-81 c5 -15 -9 -32 -28 -33 -11 0 -20 28 -13 45 6 18 32 10 41 -12z m20 -73
c20 -22 18 -28 -11 -32 -21 -3 -24 1 -24 32 0 25 12 25 35 0z m15 -101 c0 -14
-7 -19 -25 -19 -27 0 -31 10 -14 41 8 16 13 18 25 8 8 -6 14 -20 14 -30z m-12
-82 c3 -22 0 -27 -17 -24 -30 5 -34 13 -21 37 15 27 34 21 38 -13z m-24 -72
c5 -15 -2 -45 -11 -45 -2 0 -13 5 -24 11 -20 10 -20 11 -3 30 21 23 30 24 38
4z m-34 -86 c0 -11 -5 -30 -11 -41 -11 -21 -12 -21 -26 -2 -8 10 -17 18 -21
17 -19 -7 -4 23 18 34 34 17 40 16 40 -8z m-752 -47 c-3 -14 -6 -14 -16 6 -7
12 -10 27 -6 33 9 15 27 -16 22 -39z m72 -70 c0 -12 -3 -12 -15 -2 -8 7 -15
22 -15 34 1 21 1 21 15 2 8 -11 15 -26 15 -34z m604 11 c-4 -16 -15 -37 -25
-48 -20 -20 -20 -20 -25 2 -4 14 -11 20 -21 16 -26 -10 -10 30 17 44 43 22 61
17 54 -14z"/>
<path d="M1978 1483 c-27 -19 -48 -39 -48 -44 0 -15 13 -10 42 18 38 36 45 25
8 -15 -33 -37 -24 -50 21 -27 41 22 49 12 10 -11 -17 -10 -31 -22 -31 -26 0
-13 10 -9 56 24 62 44 57 79 -6 43 -39 -23 -46 -17 -17 13 27 28 34 47 20 55
-5 2 -29 -11 -55 -30z"/>
<path d="M1345 1501 c-11 -5 -23 -7 -28 -4 -18 10 -49 -11 -67 -47 -11 -22
-20 -42 -20 -45 0 -10 76 -4 99 9 l24 13 -27 7 c-32 8 -35 26 -3 24 25 -2 100
36 90 46 -8 8 -43 7 -68 -3z"/>
<path d="M936 1484 c-35 -34 -6 -81 35 -56 26 17 49 15 49 -3 0 -8 -4 -16 -10
-16 -5 -1 -14 -2 -19 -3 -19 -2 -23 -16 -7 -22 18 -7 56 21 56 41 0 7 -9 20
-19 29 -18 17 -22 17 -43 2 -28 -20 -38 -20 -38 -2 0 7 9 16 21 19 12 3 18 10
14 16 -9 15 -21 14 -39 -5z"/>
<path d="M1191 1433 c-19 -16 -46 -91 -36 -101 8 -9 84 20 101 39 19 21 19 21
-11 18 -28 -4 -30 -2 -29 29 2 37 3 37 -25 15z"/>
<path d="M1497 1433 c-4 -3 -7 -27 -8 -52 -1 -38 -2 -42 -9 -21 -7 21 -8 18
-10 -20 -1 -35 -3 -40 -10 -25 -8 20 -9 20 -9 -1 -1 -22 -31 -30 -31 -7 0 7
-4 13 -10 13 -14 0 -13 -13 3 -34 10 -14 19 -16 38 -10 13 4 27 7 32 6 4 -1 4
10 1 24 -5 19 -4 25 5 20 6 -4 11 -16 11 -26 0 -18 17 -37 25 -28 2 2 7 28 11
58 4 39 3 52 -4 45 -6 -5 -13 -30 -15 -55 -2 -25 -4 -10 -4 32 1 75 -3 95 -16
81z"/>
<path d="M866 1375 c-9 -13 -16 -28 -16 -32 1 -8 89 -53 103 -53 16 0 5 19
-13 25 -32 10 -23 25 15 25 23 0 35 5 35 14 0 9 -7 12 -21 9 -14 -4 -25 1 -35
16 -20 28 -48 27 -68 -4z m54 -10 c0 -16 -27 -32 -37 -22 -3 4 -3 13 0 22 8
20 37 20 37 0z"/>
<path d="M1684 1379 c-6 -8 -24 -38 -39 -67 -33 -61 -46 -63 -15 -2 13 26 17
41 9 38 -13 -4 -38 -67 -44 -108 -2 -22 -2 -23 10 -6 8 10 19 15 25 11 10 -6
39 21 61 58 19 34 -9 17 -31 -19 -12 -19 -25 -33 -28 -30 -3 3 12 31 32 62 20
30 36 60 34 66 -2 6 -8 5 -14 -3z"/>
<path d="M1306 1368 c4 -7 21 -32 37 -56 16 -24 27 -46 24 -48 -3 -3 -13 8
-23 25 -10 17 -22 31 -26 31 -13 0 -9 -10 19 -48 20 -26 22 -32 7 -19 -27 23
-42 22 -20 -2 15 -16 15 -19 2 -24 -9 -4 -18 -2 -21 3 -4 6 -11 10 -17 10 -6
0 -3 -9 7 -20 10 -11 13 -20 8 -20 -6 0 -16 7 -23 16 -17 20 -50 37 -50 26 0
-5 17 -20 38 -34 l39 -25 21 24 c12 14 26 22 32 18 5 -3 10 3 10 15 0 12 4 18
10 15 11 -7 5 9 -30 78 -13 26 -30 47 -38 47 -8 0 -10 -5 -6 -12z"/>
<path d="M2053 1367 c-51 -9 -73 -27 -34 -27 23 0 35 -28 20 -47 -7 -7 -9 -17
-5 -20 10 -11 100 83 92 96 -4 6 -10 10 -14 10 -4 -1 -31 -6 -59 -12z"/>
<path d="M1107 1352 c-16 -17 -25 -112 -11 -112 20 0 94 55 94 71 0 4 -12 7
-27 6 -24 -2 -28 2 -28 26 1 32 -6 34 -28 9z"/>
<path d="M1360 1343 c0 -3 14 -30 30 -60 35 -61 36 -65 13 -56 -15 6 -16 5 -3
-9 10 -11 17 -12 22 -5 4 6 10 8 14 5 10 -11 44 11 44 27 0 23 -17 18 -24 -7
-6 -23 -6 -23 -30 6 -13 15 -29 46 -35 67 -7 21 -16 39 -21 39 -6 0 -10 -3
-10 -7z"/>
<path d="M1547 1326 c-4 -10 -7 -25 -7 -34 0 -15 2 -15 10 -2 8 13 10 12 10
-4 0 -11 3 -17 6 -14 3 3 1 21 -3 39 -7 27 -11 30 -16 15z"/>
<path d="M826 1286 c-3 -13 -8 -31 -12 -39 -4 -11 8 -19 42 -31 65 -22 70 -21
83 15 13 39 13 39 1 39 -5 0 -12 -11 -16 -25 -6 -25 -28 -33 -39 -15 -3 5 -1
18 5 29 7 13 7 22 0 26 -6 3 -14 -5 -20 -19 -14 -37 -34 -34 -27 4 8 35 -8 50
-17 16z"/>
<path d="M2098 1272 c-52 -17 -53 -18 -38 -56 8 -21 16 -26 44 -26 18 0 44 8
56 18 18 15 21 24 15 50 -7 36 -11 36 -77 14z m62 -25 c0 -21 -22 -37 -51 -37
-35 0 -46 28 -16 40 33 13 67 12 67 -3z"/>
<path d="M1047 1250 c-17 -32 -17 -38 -2 -73 15 -37 16 -38 39 -20 28 21 61
72 52 80 -3 3 -12 0 -21 -7 -21 -18 -43 -6 -47 27 l-4 28 -17 -35z"/>
<path d="M1666 1251 c-16 -17 -15 -20 14 -51 l30 -32 65 32 c36 17 65 36 65
41 0 15 -12 10 -70 -26 -62 -40 -94 -48 -37 -10 20 14 37 31 37 37 0 6 -9 3
-21 -8 -16 -14 -22 -15 -28 -5 -6 9 -11 10 -15 3 -4 -6 -13 -9 -22 -5 -11 4
-12 8 -3 19 18 22 4 27 -15 5z"/>
<path d="M1170 1235 c6 -8 20 -17 30 -20 11 -4 17 -12 13 -20 -5 -14 44 -42
55 -31 3 3 -8 10 -23 16 -15 6 -25 13 -22 16 3 3 20 -2 38 -11 25 -13 29 -19
18 -27 -10 -7 -7 -7 9 -3 22 7 52 -9 52 -26 0 -5 -11 -9 -25 -9 -14 0 -25 -5
-25 -11 0 -7 -12 -9 -36 -4 -24 4 -34 3 -29 -4 8 -14 75 -15 75 -1 0 5 6 7 13
5 15 -6 28 4 44 32 8 14 9 24 3 28 -6 4 -8 11 -5 16 3 5 -1 6 -10 2 -13 -4
-14 -8 -4 -14 8 -4 11 -10 8 -13 -3 -3 -43 17 -89 44 -85 51 -112 62 -90 35z"/>
<path d="M1620 1214 c0 -10 -6 -14 -15 -10 -22 8 -18 -7 6 -22 18 -11 20 -11
16 0 -2 7 0 21 5 31 5 11 5 17 -2 17 -5 0 -10 -7 -10 -16z"/>
<path d="M1454 1199 c-40 -11 -84 -55 -91 -91 -5 -24 -9 -26 -34 -21 -19 3
-29 1 -29 -6 0 -7 5 -9 10 -6 6 3 10 1 10 -5 0 -8 -30 -11 -92 -10 -120 2
-120 2 -113 -10 3 -5 38 -7 84 -3 108 8 147 0 156 -34 4 -17 2 -29 -7 -34 -20
-13 -38 -10 -38 6 0 8 5 15 10 15 7 0 6 8 -1 23 l-12 22 -8 -28 c-9 -32 7 -76
28 -78 7 -1 18 -2 23 -3 6 -1 9 3 8 9 -2 5 -10 9 -18 7 -10 -2 -9 2 5 13 17
13 21 13 34 1 12 -13 12 -18 -3 -41 -13 -19 -21 -24 -30 -16 -8 7 -20 3 -41
-15 l-30 -24 30 6 c17 4 32 11 33 16 2 4 8 6 12 3 5 -3 17 5 27 19 l18 24 37
-19 c23 -12 52 -18 76 -16 36 3 39 1 40 -24 0 -21 -3 -26 -18 -22 -10 3 -21
15 -23 27 -3 17 -5 15 -6 -6 -1 -27 -31 -42 -31 -16 0 6 -3 9 -6 5 -4 -3 -23
2 -43 12 -28 14 -40 15 -57 6 -32 -16 -54 -36 -54 -48 0 -6 12 0 27 14 28 26
22 8 -10 -28 -10 -12 -17 -27 -15 -34 2 -7 19 11 38 39 18 29 36 52 40 52 3 0
24 -8 46 -19 33 -16 79 -20 128 -12 4 0 6 13 3 28 -4 22 3 35 39 70 24 23 44
49 44 58 0 8 5 15 11 15 6 0 8 -7 4 -17 -5 -15 -4 -16 6 -5 20 19 27 14 21
-14 -2 -14 -7 -22 -11 -17 -3 4 -13 9 -21 11 -11 2 -10 -2 3 -12 15 -12 17
-18 7 -35 -6 -12 -15 -19 -21 -16 -15 10 -10 -32 6 -45 8 -7 15 -17 15 -23 0
-5 -10 -2 -21 9 -22 19 -22 19 -11 -1 18 -33 61 -81 62 -69 0 6 -7 17 -15 24
-17 14 -21 35 -5 25 14 -9 13 8 -2 23 -19 19 6 40 27 22 10 -9 15 -9 15 -1 0
7 9 6 25 -5 14 -9 25 -12 25 -6 0 5 -11 17 -25 26 -28 18 -39 21 -30 6 3 -5 2
-10 -4 -10 -5 0 -13 5 -16 10 -3 6 -1 10 5 10 6 0 8 5 5 10 -11 17 4 11 61
-25 57 -37 86 -46 65 -21 -6 7 -40 26 -75 42 -59 26 -64 31 -59 54 8 34 12 40
29 40 11 0 12 -4 5 -19 -8 -15 -6 -20 14 -29 14 -7 25 -8 25 -3 0 5 -7 11 -15
15 -25 9 -17 26 13 27 15 1 -1 7 -38 15 -107 24 -96 34 30 32 63 -2 117 1 120
6 3 5 -37 9 -92 8 -54 0 -100 3 -102 7 -3 4 28 6 69 3 54 -3 75 -1 75 7 0 8
-18 11 -57 8 -32 -3 -47 -3 -33 0 36 6 54 13 48 19 -5 4 -39 -2 -124 -21 -17
-4 -23 -15 -28 -48 -13 -88 -105 -138 -189 -104 -48 21 -77 69 -77 129 0 41 5
52 35 82 40 41 88 53 139 36 33 -11 78 -53 89 -82 2 -7 7 -10 11 -6 13 11 -23
66 -57 87 -41 25 -91 33 -133 20z"/>
<path d="M800 1186 c0 -7 18 -19 40 -26 53 -17 51 -30 -5 -30 -31 0 -45 -4
-45 -13 0 -11 11 -12 58 -5 52 8 83 22 71 31 -2 2 -30 16 -61 30 -41 18 -58
22 -58 13z"/>
<path d="M1750 1175 c-50 -27 -42 -33 14 -10 20 8 36 20 36 25 0 13 3 13 -50
-15z"/>
<path d="M2123 1167 c-67 -12 -71 -32 -5 -23 65 10 83 16 77 27 -4 5 -9 8 -13
8 -4 -1 -31 -6 -59 -12z"/>
<path d="M1006 1147 c-6 -24 7 -77 19 -77 2 0 2 14 -2 32 -5 24 -3 29 7 23 8
-5 10 -20 7 -40 -7 -41 10 -62 30 -37 13 15 13 15 8 -5 -4 -14 -2 -23 5 -23
13 0 4 -39 -12 -55 -7 -7 -9 0 -5 23 6 27 4 32 -13 32 -10 0 -25 9 -33 20 -13
18 -15 19 -21 5 -8 -21 18 -76 48 -104 l23 -22 17 41 c18 46 21 86 6 95 -7 4
-7 12 0 25 5 10 10 31 10 46 0 27 0 27 -21 8 -21 -19 -21 -19 -44 10 l-22 28
-7 -25z m34 -147 c0 -5 3 -17 6 -27 4 -14 1 -13 -15 6 -25 27 -27 43 -6 35 8
-4 15 -10 15 -14z"/>
<path d="M1630 1165 c0 -11 35 -45 47 -45 7 0 13 -5 13 -11 0 -5 5 -7 11 -3 8
4 3 12 -12 20 -13 7 -20 13 -15 14 6 0 1 7 -10 15 -19 15 -34 19 -34 10z"/>
<path d="M1492 1153 c-6 -2 -10 -9 -7 -13 3 -5 12 -7 20 -3 20 7 19 -7 -2 -22
-15 -12 -15 -15 1 -49 17 -36 17 -38 0 -57 -25 -27 -58 -21 -61 11 -1 14 0 19
3 13 3 -7 15 -13 25 -13 11 0 17 5 14 10 -4 6 -11 8 -16 5 -5 -4 -9 -2 -9 4 0
5 5 13 10 16 13 8 13 35 0 35 -5 0 -7 -7 -3 -17 5 -13 2 -15 -14 -11 -18 5
-22 0 -27 -34 -8 -47 -2 -58 29 -58 19 0 23 -4 18 -17 -6 -16 -5 -16 8 -3 8 8
20 27 28 43 l14 27 19 -20 c11 -11 24 -17 30 -14 7 5 2 15 -15 28 -30 25 -46
88 -27 111 9 11 9 15 1 15 -7 0 -9 5 -6 10 6 10 -11 12 -33 3z"/>
<path d="M2170 1109 c-14 -10 -40 -19 -57 -19 -18 0 -33 -4 -33 -10 0 -5 14
-10 31 -10 17 0 44 -9 59 -20 20 -14 31 -17 36 -9 7 12 -12 29 -33 29 -7 0
-13 5 -13 10 0 6 6 10 14 10 17 0 40 26 29 33 -5 3 -20 -3 -33 -14z"/>
<path d="M1564 1103 c-3 -10 -9 -28 -14 -40 -10 -25 3 -33 39 -24 35 9 42 35
7 29 -14 -3 -26 -1 -26 3 0 5 5 9 10 9 13 0 13 27 0 35 -6 3 -13 -2 -16 -12z"/>
<path d="M1396 1094 c-9 -24 -7 -54 4 -54 6 0 10 4 10 10 0 5 10 18 22 30 12
11 19 23 15 26 -4 4 -16 -4 -27 -17 -21 -24 -21 -24 -15 -1 7 25 0 30 -9 6z"/>
<path d="M1175 1080 c3 -5 32 -9 63 -9 57 1 57 1 17 10 -56 11 -87 11 -80 -1z"/>
<path d="M780 1070 c0 -6 28 -10 65 -10 37 0 65 4 65 10 0 6 -28 10 -65 10
-37 0 -65 -4 -65 -10z"/>
<path d="M833 1033 c-29 -2 -53 -9 -53 -14 0 -7 15 -8 40 -4 48 8 52 -4 8 -26
-56 -27 -47 -40 23 -37 35 2 64 7 64 13 0 5 -17 8 -37 7 -21 -2 -38 -1 -38 1
0 3 16 14 35 26 34 20 47 43 23 39 -7 -1 -37 -3 -65 -5z"/>
<path d="M1200 1030 l-35 -7 35 -1 c19 0 49 4 65 8 l30 8 -30 0 c-16 -1 -46
-4 -65 -8z"/>
<path d="M1740 1029 c60 -10 108 -9 55 2 -22 4 -53 8 -70 7 -22 0 -19 -3 15
-9z"/>
<path d="M2103 1026 c24 -18 22 -52 -4 -59 -12 -3 -18 -10 -15 -15 6 -10 102
8 127 23 8 5 -7 18 -42 36 -58 30 -98 39 -66 15z"/>
<path d="M1090 938 c-15 -32 -26 -34 -58 -12 -19 13 -22 13 -22 0 0 -29 13
-47 56 -75 l43 -30 7 44 c3 24 2 56 -4 72 l-9 28 -13 -27z"/>
<path d="M1237 939 c-22 -11 -37 -23 -34 -25 5 -6 87 33 87 41 0 9 -14 4 -53
-16z"/>
<path d="M1710 958 c13 -14 90 -47 90 -39 0 5 -12 14 -27 19 -16 5 -37 13 -48
18 -11 4 -18 5 -15 2z"/>
<path d="M1232 910 c-30 -15 -59 -33 -65 -39 -19 -19 15 -13 52 10 18 11 36
18 39 15 2 -3 -3 -8 -12 -12 -16 -6 -23 -24 -8 -24 4 0 23 14 42 31 20 18 26
26 13 20 -34 -17 -40 -12 -13 9 35 27 15 23 -48 -10z"/>
<path d="M860 919 c-56 -16 -62 -18 -56 -28 4 -5 24 -4 48 4 47 13 68 10 68
-10 0 -13 -56 -35 -87 -35 -7 0 -13 -7 -13 -15 0 -8 1 -15 3 -15 1 0 24 7 51
15 66 20 83 47 50 79 -17 18 -16 18 -64 5z"/>
<path d="M2080 920 c0 -5 11 -12 26 -16 38 -10 27 -40 -14 -36 -50 3 -38 -13
24 -32 36 -11 60 -14 66 -8 6 6 0 12 -17 16 -37 9 -30 42 8 38 47 -5 29 16
-27 32 -64 19 -66 19 -66 6z"/>
<path d="M1612 888 c2 -7 -2 -12 -8 -11 -6 1 -11 -5 -11 -13 0 -7 5 -14 11
-14 6 0 27 -29 46 -65 33 -61 50 -79 50 -54 0 5 -18 37 -41 70 -22 33 -38 67
-35 74 3 8 1 17 -5 20 -5 4 -8 1 -7 -7z"/>
<path d="M1345 797 c-47 -70 -50 -77 -36 -77 5 0 26 28 45 63 20 34 36 55 36
46 0 -8 -7 -24 -15 -35 -17 -22 -19 -34 -6 -34 5 0 14 12 19 28 5 15 13 36 18
46 5 13 4 17 -3 13 -6 -4 -13 -3 -15 2 -1 4 -21 -19 -43 -52z"/>
<path d="M1410 814 c-12 -30 -5 -47 7 -18 12 30 33 28 34 -3 l1 -28 8 25 c7
21 8 18 10 -20 l3 -45 7 45 c9 52 9 49 -19 55 -11 2 -26 7 -31 10 -6 3 -15 -6
-20 -21z"/>
<path d="M1600 836 c0 -12 32 -77 36 -73 6 6 -22 77 -30 77 -4 0 -6 -2 -6 -4z"/>
<path d="M1500 829 c-12 -122 -11 -161 1 -157 11 4 13 23 10 79 -1 41 -5 76
-7 78 -2 2 -4 2 -4 0z"/>
<path d="M1539 808 c0 -22 -1 -22 -9 -3 -7 17 -9 15 -9 -12 -1 -17 2 -38 5
-47 9 -23 23 -10 16 16 -4 16 -2 19 8 13 10 -6 11 -2 6 19 -4 18 -3 25 4 21 5
-3 10 -1 10 4 0 22 -30 10 -31 -11z"/>
<path d="M913 767 c3 -22 -1 -31 -22 -42 l-26 -14 26 -1 c26 0 45 -23 33 -41
-3 -5 -1 -9 4 -9 5 0 12 10 15 21 5 19 11 21 39 16 l33 -7 -24 21 c-21 17 -23
23 -13 40 17 27 15 30 -13 17 -21 -10 -28 -8 -41 8 -15 18 -15 18 -11 -9z"/>
<path d="M2077 772 c-14 -14 -21 -14 -37 -4 -29 18 -33 15 -16 -10 14 -20 14
-24 -4 -43 l-20 -22 28 5 c24 3 31 -1 37 -20 8 -23 8 -23 12 4 3 20 11 28 31
30 l27 4 -28 12 c-24 10 -26 14 -17 33 15 27 8 33 -13 11z"/>
<path d="M1840 563 c0 -5 7 -17 15 -27 25 -33 17 -39 -21 -16 -19 12 -37 20
-40 17 -8 -7 45 -107 56 -107 14 0 12 12 -5 34 -26 34 -16 39 19 12 20 -14 37
-22 41 -16 7 12 -42 110 -55 110 -6 0 -10 -3 -10 -7z"/>
<path d="M1101 534 c-40 -51 -16 -115 34 -92 30 14 22 30 -11 22 -19 -5 -24
-2 -24 14 0 11 9 30 20 43 l20 24 18 -24 c23 -29 37 -13 16 17 -20 29 -48 28
-73 -4z"/>
<path d="M1217 461 c-19 -54 -21 -71 -9 -71 4 0 17 23 28 52 10 29 21 56 22
60 2 4 -2 8 -10 8 -7 0 -21 -22 -31 -49z"/>
<path d="M1690 490 c-23 -23 -25 -39 -8 -75 16 -37 56 -44 80 -15 19 24 17 47
-8 88 -18 27 -38 28 -64 2z m61 -40 c6 -27 -6 -50 -26 -50 -16 0 -39 55 -30
70 12 20 49 7 56 -20z"/>
<path d="M1288 430 c-8 -33 -12 -63 -8 -65 11 -7 20 6 20 27 0 28 20 21 31
-12 6 -16 15 -30 20 -30 12 0 11 17 -1 41 -7 12 -7 19 -1 19 6 0 15 8 20 19
13 23 -4 48 -40 56 -25 6 -27 4 -41 -55z m67 9 c-9 -14 -45 -11 -45 4 0 8 3
17 6 20 10 9 46 -12 39 -24z"/>
<path d="M1420 405 l0 -65 40 0 c22 0 40 5 40 10 0 6 -13 10 -30 10 -23 0 -30
4 -30 20 0 15 7 20 25 20 14 0 25 5 25 10 0 6 -11 10 -25 10 -16 0 -25 6 -25
16 0 11 8 14 27 12 15 -2 28 2 30 10 3 8 -8 12 -36 12 l-41 0 0 -65z"/>
<path d="M1545 413 c8 -68 14 -76 48 -68 38 10 52 31 39 58 -6 12 -12 31 -14
42 -2 15 -12 21 -42 23 l-38 3 7 -58z m60 22 c0 -5 -10 -11 -22 -13 -16 -2
-23 2 -23 13 0 11 7 15 23 13 12 -2 22 -7 22 -13z m10 -50 c0 -5 -10 -11 -22
-13 -16 -2 -23 2 -23 13 0 11 7 15 23 13 12 -2 22 -7 22 -13z"/>
</g>
</svg>
