<?xml version="1.0" standalone="no"?>
<!DOCTYPE svg PUBLIC "-//W3C//DTD SVG 20010904//EN"
 "http://www.w3.org/TR/2001/REC-SVG-20010904/DTD/svg10.dtd">
<svg version="1.0" xmlns="http://www.w3.org/2000/svg"
 width="400.000000pt" height="300.000000pt" viewBox="0 0 400.000000 300.000000"
 preserveAspectRatio="xMidYMid meet">
<metadata>
Created by potrace 1.16, written by Peter Selinger 2001-2019
</metadata>
<g transform="translate(0.000000,300.000000) scale(0.100000,-0.100000)"
fill="#000000" stroke="none">
<path d="M1764 2130 c-286 -32 -519 -140 -579 -267 -34 -71 0 -163 81 -223 29
-21 33 -31 34 -68 0 -37 4 -45 33 -62 39 -24 75 -25 122 -3 33 16 40 16 107 0
159 -36 216 -42 418 -42 217 0 293 9 444 51 316 89 442 254 307 405 -31 34
-42 41 -52 32 -9 -9 -4 -21 25 -54 45 -54 54 -97 30 -150 -42 -94 -188 -172
-414 -220 -68 -14 -146 -21 -275 -24 -101 -3 -167 -1 -150 4 70 19 137 60 376
233 220 159 335 232 412 260 60 22 78 41 59 60 -9 9 -8 15 0 25 9 11 7 18 -6
31 -27 28 -94 20 -173 -20 -66 -32 -72 -34 -108 -21 -20 7 -85 22 -144 34
-118 23 -419 34 -547 19z m406 -43 c0 -5 21 -6 46 -2 33 4 44 3 39 -6 -5 -8 1
-9 23 -4 18 4 33 2 37 -5 4 -6 16 -8 27 -4 14 4 18 3 13 -5 -5 -8 1 -10 19 -5
17 4 26 2 26 -6 0 -7 6 -10 14 -7 8 3 17 -2 21 -11 3 -9 3 -13 -1 -9 -4 4 -13
-1 -21 -11 -10 -11 -12 -12 -8 -2 4 8 -3 4 -15 -10 -12 -14 -18 -18 -14 -10 7
13 6 13 -12 0 -10 -8 -27 -23 -37 -35 -10 -11 -16 -13 -12 -5 4 8 -2 5 -13 -7
-11 -12 -22 -19 -26 -16 -3 3 -8 -2 -12 -11 -3 -9 -10 -14 -14 -11 -4 3 -22
-8 -39 -24 -17 -16 -31 -26 -31 -23 0 4 -10 -4 -21 -18 -11 -14 -18 -18 -14
-10 4 8 -3 4 -14 -9 -12 -13 -21 -19 -21 -15 0 5 -7 0 -15 -10 -8 -11 -15 -16
-15 -10 0 5 -10 -2 -21 -16 -11 -14 -18 -18 -14 -10 4 8 -3 4 -15 -10 -12 -14
-19 -18 -15 -10 4 10 2 9 -8 -2 -8 -10 -17 -15 -20 -11 -4 3 -9 -2 -13 -11 -3
-9 -10 -13 -15 -10 -5 3 -9 1 -9 -4 0 -5 -6 -9 -14 -9 -11 0 -12 6 -5 26 6 14
16 31 23 36 14 11 16 16 16 39 0 8 6 21 14 29 15 14 13 20 -27 105 -11 22 -47
31 -47 11 0 -6 -7 -9 -15 -5 -8 3 -15 1 -15 -5 0 -6 -7 -9 -15 -5 -8 3 -15 1
-15 -5 0 -6 -4 -8 -10 -4 -5 3 -18 -3 -29 -14 -11 -11 -22 -17 -25 -13 -3 3
-6 0 -6 -7 0 -7 -5 -9 -10 -6 -6 3 -13 -1 -16 -9 -3 -9 -10 -13 -15 -10 -5 3
-12 -2 -15 -10 -3 -9 -10 -14 -14 -11 -5 3 -13 -3 -19 -12 -6 -10 -11 -13 -11
-8 0 6 -10 -1 -21 -15 -11 -14 -18 -18 -14 -10 4 8 -1 6 -10 -5 -9 -11 -20
-20 -26 -20 -5 0 -13 -4 -17 -10 -4 -5 -13 -11 -21 -13 -7 -2 5 20 29 48 23
27 46 50 50 50 5 0 23 15 41 33 18 17 26 23 18 12 -7 -11 10 4 38 33 29 28 57
52 63 52 7 0 10 13 7 35 -3 19 -1 35 4 35 5 0 0 9 -11 20 -11 11 -20 24 -20
29 0 4 86 8 190 8 105 -1 190 -5 190 -10z m-481 -30 c-6 -10 -14 -15 -18 -12
-5 2 -50 -40 -101 -95 -50 -55 -95 -98 -99 -95 -4 2 -32 -21 -62 -52 -30 -31
-47 -53 -39 -47 9 5 2 -3 -15 -18 -16 -15 -25 -28 -20 -28 6 0 2 -5 -8 -11 -9
-6 -15 -14 -12 -20 12 -18 -46 -4 -63 16 -16 19 -16 20 4 5 11 -8 8 -3 -6 11
-14 14 -24 31 -22 37 2 7 0 12 -5 12 -4 0 -8 18 -8 40 0 22 4 40 9 40 4 0 5 7
2 16 -3 8 -2 12 4 9 6 -3 11 -1 11 4 3 21 4 26 12 39 5 7 12 10 17 7 4 -3 18
7 30 22 12 16 19 21 15 13 -4 -10 -2 -9 8 2 8 10 17 15 20 11 4 -3 7 -1 7 6 0
7 5 9 10 6 6 -3 10 -1 10 5 0 6 5 8 10 5 6 -3 10 -1 10 5 0 6 5 8 10 5 6 -3
10 -1 10 5 0 6 5 8 10 5 6 -3 10 -2 10 4 0 6 7 8 15 5 8 -4 15 -1 15 5 0 6 7
8 15 5 8 -4 15 -1 15 5 0 6 7 8 15 5 8 -4 15 -1 15 6 0 7 8 9 20 5 12 -4 20
-2 20 5 0 7 8 9 20 5 12 -4 20 -2 20 5 0 7 8 9 19 5 11 -3 22 -2 25 4 3 5 17
8 30 7 20 -1 22 -4 15 -19z m70 -374 c-14 -38 -1 -131 22 -154 11 -11 26 -19
36 -19 9 0 14 -2 12 -5 -7 -6 -190 21 -246 36 l-42 11 57 39 c31 21 80 56 107
78 60 48 68 50 54 14z"/>
<path d="M910 1294 c0 -6 3 -14 8 -18 4 -4 21 -48 37 -99 22 -68 37 -96 58
-111 34 -25 38 -20 57 62 l13 57 13 -44 c15 -49 36 -77 65 -84 16 -4 23 9 55
111 20 65 38 122 41 128 2 6 -10 9 -32 6 -27 -3 -34 -8 -31 -21 3 -9 -3 -42
-12 -74 l-18 -58 -19 75 -19 74 -43 4 c-24 2 -43 2 -43 0 0 -1 5 -10 11 -20 7
-12 6 -34 -4 -77 l-14 -60 -18 77 -18 76 -44 4 c-26 2 -43 -1 -43 -8z"/>
<path d="M1331 1293 c-50 -25 -73 -68 -68 -126 10 -113 150 -156 234 -72 28
28 33 40 33 79 0 55 -13 85 -47 110 -36 27 -109 31 -152 9z m103 -55 c24 -33
21 -114 -3 -128 -28 -14 -57 -12 -71 5 -18 21 -24 98 -11 124 16 29 65 29 85
-1z"/>
<path d="M1778 1302 l-47 -3 -16 -57 c-9 -31 -17 -61 -18 -65 -1 -4 -13 21
-27 58 l-24 65 -44 0 c-35 0 -43 -3 -38 -15 7 -19 -12 -185 -25 -207 -5 -10
-9 -19 -9 -20 0 -2 17 -3 38 -3 l39 0 -4 70 -3 70 19 -40 c11 -22 20 -45 20
-52 1 -12 48 -53 60 -53 4 0 16 32 26 72 l20 71 7 -54 c4 -30 3 -58 -3 -64 -5
-5 -9 -11 -9 -15 0 -3 49 -5 110 -5 102 0 125 5 100 20 -5 3 -10 24 -10 47 0
37 2 40 24 34 20 -5 23 -2 22 24 -1 24 -5 30 -23 30 -18 0 -23 6 -23 26 0 24
3 26 30 21 27 -6 30 -4 30 21 0 27 0 27 -75 27 -70 0 -88 -6 -65 -20 13 -8 13
-202 1 -210 -17 -10 -26 18 -36 113 -7 59 -7 96 -1 102 14 14 7 15 -46 12z"/>
<path d="M2022 1298 c-16 -16 -15 -40 1 -57 10 -11 9 -13 -5 -8 -18 6 -26 -7
-10 -16 9 -6 9 -127 -1 -147 -6 -12 2 -15 43 -15 38 0 49 3 45 13 -3 8 -5 50
-5 93 0 61 -3 79 -12 73 -10 -6 -10 -4 0 7 18 19 15 47 -7 59 -25 13 -34 13
-49 -2z"/>
<path d="M2150 1232 l-35 -3 0 -87 0 -87 40 0 40 0 -3 68 c-4 58 -2 67 13 67
15 0 17 -9 13 -70 -3 -57 -1 -69 10 -65 7 3 26 5 40 5 27 0 27 1 26 70 -1 99
-20 113 -144 102z"/>
<path d="M2370 1233 c-16 -7 -39 -33 -40 -45 0 -4 16 -4 37 -1 44 7 38 -12 -7
-22 -17 -4 -38 -18 -46 -31 -15 -22 -15 -26 0 -49 22 -33 65 -44 82 -20 12 16
14 16 36 1 12 -9 30 -16 40 -16 19 0 37 42 19 48 -6 2 -11 23 -11 47 0 26 -7
51 -17 64 -19 22 -67 35 -93 24z"/>
<path d="M2540 1232 l-35 -3 0 -87 0 -87 40 3 40 4 0 61 c0 49 3 62 15 62 12
0 15 -14 14 -65 l0 -65 41 0 42 0 -4 65 c-2 36 -9 75 -15 87 -12 24 -54 36
-80 22 -9 -5 -18 -6 -20 -1 -2 4 -19 6 -38 4z"/>
<path d="M2783 1233 c-59 -11 -92 -91 -58 -139 36 -52 137 -56 156 -7 10 26
10 26 24 6 40 -57 164 -54 165 4 0 7 -13 9 -40 6 -38 -5 -70 8 -70 28 0 5 25
9 55 9 50 0 55 2 55 23 -1 72 -115 100 -159 38 -11 -15 -21 -40 -23 -56 -2
-22 -10 -32 -31 -39 -39 -14 -62 2 -62 45 0 33 1 34 38 33 34 -1 37 1 31 20
-11 34 -26 40 -81 29z"/>
<path d="M2114 942 c-6 -4 -14 -22 -17 -39 -5 -25 -3 -33 8 -33 8 0 15 8 15
18 1 15 2 15 12 -2 11 -19 11 -19 24 -1 11 15 14 16 14 4 0 -11 11 -16 40 -17
32 -2 40 2 40 16 0 14 2 14 9 3 5 -8 7 -20 4 -28 -10 -25 16 -13 31 15 10 17
15 21 16 11 0 -14 13 -17 74 -17 69 -1 75 0 79 21 l4 22 2 -22 c1 -20 6 -23
39 -21 36 1 39 3 39 30 0 20 -4 27 -14 24 -7 -3 -13 1 -13 9 0 8 -7 15 -15 15
-8 0 -15 -6 -15 -13 0 -9 -15 -12 -52 -10 -29 1 -55 -2 -58 -8 -4 -5 -16 0
-28 11 -27 25 -30 25 -54 -2 -12 -14 -22 -18 -26 -12 -4 5 -21 11 -39 12 -23
2 -33 -3 -36 -15 -4 -14 -5 -13 -6 5 -1 26 -26 29 -40 5 -10 -17 -10 -17 -11
-1 0 20 -12 29 -26 20z"/>
</g>
</svg>
